<svg width="30" height="30" viewBox="0 0 96 96" fill="none" xmlns="http://www.w3.org/2000/svg">
<g clip-path="url(#clip0_1050_1995)">
<path d="M12 68C12 70.2091 13.7909 72 16 72H80C82.2091 72 84 70.2091 84 68V68C84 65.7909 82.2091 64 80 64H16C13.7909 64 12 65.7909 12 68V68ZM12 48C12 50.2091 13.7909 52 16 52H80C82.2091 52 84 50.2091 84 48V48C84 45.7909 82.2091 44 80 44H16C13.7909 44 12 45.7909 12 48V48ZM16 24C13.7909 24 12 25.7909 12 28V28C12 30.2091 13.7909 32 16 32H80C82.2091 32 84 30.2091 84 28V28C84 25.7909 82.2091 24 80 24H16Z" fill="white"/>
</g>
<defs>
<clipPath id="clip0_1050_1995">
<rect width="96" height="96" fill="white"/>
</clipPath>
</defs>
</svg>
