<?xml version="1.0" encoding="utf-8"?>
<!-- Generator: Adobe Illustrator 24.1.0, SVG Export Plug-In . SVG Version: 6.00 Build 0)  -->
<svg version="1.1" id="Camada_1" xmlns="http://www.w3.org/2000/svg" xmlns:xlink="http://www.w3.org/1999/xlink" x="0px" y="0px"
	 viewBox="0 0 300 59" style="enable-background:new 0 0 300 59;" xml:space="preserve">
<style type="text/css">
	.st0{fill:#fff;}
	.st1{fill:transparent;}
</style>
<circle class="st0" cx="65" cy="33" r="13"/>
<path class="st0" d="M22.55,12.14l8.58,24.23l8.54-24.23h9.04v33.41h-6.91v-9.13l0.69-15.77l-9.02,24.9h-4.73l-9-24.88l0.69,15.74
	v9.13h-6.88V12.14H22.55z"/>
<path class="st0" d="M89.81,37.46l4.61-16.73h6.93l-8.38,24.83h-6.33l-8.38-24.83h6.93L89.81,37.46z"/>
<path class="st0" d="M104.23,14.3c0-0.99,0.33-1.81,1-2.46c0.67-0.64,1.57-0.96,2.72-0.96c1.13,0,2.03,0.32,2.71,0.96
	c0.67,0.64,1.01,1.46,1.01,2.46c0,1.01-0.34,1.84-1.02,2.48c-0.68,0.64-1.58,0.96-2.7,0.96c-1.12,0-2.02-0.32-2.7-0.96
	S104.23,15.31,104.23,14.3z M111.27,45.56h-6.66V20.73h6.66V45.56z"/>
<path class="st0" d="M128.16,46.02c-3.64,0-6.61-1.12-8.89-3.35c-2.29-2.23-3.43-5.21-3.43-8.93v-0.64c0-2.49,0.48-4.72,1.45-6.69
	c0.96-1.97,2.33-3.48,4.1-4.54c1.77-1.06,3.78-1.59,6.05-1.59c3.4,0,6.07,1.07,8.02,3.21c1.95,2.14,2.93,5.18,2.93,9.11v2.71h-15.81
	c0.21,1.62,0.86,2.92,1.94,3.9c1.08,0.98,2.44,1.47,4.1,1.47c2.55,0,4.55-0.93,5.99-2.78l3.26,3.65c-0.99,1.41-2.34,2.51-4.04,3.29
	C132.11,45.62,130.23,46.02,128.16,46.02z M127.41,25.61c-1.32,0-2.38,0.45-3.2,1.34c-0.82,0.89-1.34,2.17-1.57,3.83h9.23v-0.53
	c-0.03-1.48-0.43-2.62-1.19-3.42C129.9,26.02,128.81,25.61,127.41,25.61z"/>
<path class="st0" d="M174.38,31.9h-13.22v13.65h-6.88V12.14h21.76v5.58h-14.87v8.63h13.22V31.9z"/>
<path class="st0" d="M179.55,14.3c0-0.99,0.33-1.81,1-2.46c0.67-0.64,1.57-0.96,2.72-0.96c1.13,0,2.04,0.32,2.71,0.96
	c0.67,0.64,1.01,1.46,1.01,2.46c0,1.01-0.34,1.84-1.02,2.48c-0.68,0.64-1.58,0.96-2.7,0.96c-1.12,0-2.02-0.32-2.7-0.96
	S179.55,15.31,179.55,14.3z M186.59,45.56h-6.66V20.73h6.66V45.56z"/>
<path class="st0" d="M198.16,20.73l0.21,2.87c1.77-2.22,4.15-3.33,7.14-3.33c2.63,0,4.59,0.77,5.88,2.32
	c1.29,1.55,1.94,3.86,1.97,6.93v16.04h-6.63V29.68c0-1.41-0.31-2.43-0.92-3.06c-0.61-0.63-1.63-0.95-3.05-0.95
	c-1.87,0-3.27,0.8-4.2,2.39v17.51h-6.63V20.73H198.16z"/>
<path class="st0" d="M217.34,32.96c0-3.87,0.87-6.95,2.6-9.25s4.11-3.44,7.13-3.44c2.42,0,4.41,0.9,5.99,2.71V10.31h6.66v35.25
	h-5.99l-0.32-2.64c-1.65,2.07-3.78,3.1-6.38,3.1c-2.92,0-5.27-1.15-7.03-3.45C218.23,40.26,217.34,37.06,217.34,32.96z
	 M223.98,33.45c0,2.33,0.41,4.11,1.22,5.36c0.81,1.24,1.99,1.86,3.53,1.86c2.05,0,3.5-0.87,4.34-2.6v-9.81
	c-0.83-1.73-2.26-2.6-4.29-2.6C225.58,25.66,223.98,28.26,223.98,33.45z"/>
<path class="st0" d="M256.29,46.02c-3.64,0-6.61-1.12-8.89-3.35c-2.29-2.23-3.43-5.21-3.43-8.93v-0.64c0-2.49,0.48-4.72,1.45-6.69
	c0.96-1.97,2.33-3.48,4.1-4.54c1.77-1.06,3.78-1.59,6.05-1.59c3.4,0,6.07,1.07,8.02,3.21c1.95,2.14,2.93,5.18,2.93,9.11v2.71h-15.81
	c0.21,1.62,0.86,2.92,1.94,3.9c1.08,0.98,2.44,1.47,4.1,1.47c2.55,0,4.55-0.93,5.99-2.78l3.26,3.65c-0.99,1.41-2.34,2.51-4.04,3.29
	C260.24,45.62,258.35,46.02,256.29,46.02z M255.53,25.61c-1.32,0-2.38,0.45-3.2,1.34c-0.82,0.89-1.34,2.17-1.57,3.83h9.23v-0.53
	c-0.03-1.48-0.43-2.62-1.19-3.42C258.02,26.02,256.94,25.61,255.53,25.61z"/>
<path class="st0" d="M284.22,26.94c-0.9-0.12-1.7-0.18-2.39-0.18c-2.51,0-4.15,0.85-4.93,2.55v16.25h-6.63V20.73h6.27l0.18,2.96
	c1.33-2.28,3.17-3.42,5.53-3.42c0.73,0,1.42,0.1,2.06,0.3L284.22,26.94z"/>
<polygon class="st1" points="66.91,29.62 72.49,32.88 66.88,36.08 61.27,39.28 61.3,32.82 61.34,26.36 "/>
</svg>
