<svg id="Bold" xmlns="http://www.w3.org/2000/svg" viewBox="0 0 60 57"><defs><style>.cls-1{fill:#fff;}</style></defs><title>github-image</title><path class="cls-1" d="M30,6.59A22.31,22.31,0,0,0,7.5,28.7a22.14,22.14,0,0,0,15.38,21c1.13.21,1.54-.47,1.54-1.06s0-1.92,0-3.76c-6.26,1.33-7.58-3-7.58-3a5.87,5.87,0,0,0-2.5-3.23c-2-1.37.16-1.34.16-1.34a4.71,4.71,0,0,1,3.45,2.28c2,3.38,5.26,2.4,6.55,1.83a4.66,4.66,0,0,1,1.42-3c-5-.56-10.25-2.46-10.25-10.93A8.47,8.47,0,0,1,18,21.61a7.75,7.75,0,0,1,.2-5.85S20,15.17,24.34,18a21.75,21.75,0,0,1,11.25,0c4.28-2.85,6.16-2.26,6.16-2.26A8,8,0,0,1,42,21.61a8.51,8.51,0,0,1,2.31,5.93C44.29,36,39,37.91,34,38.45a5.23,5.23,0,0,1,1.52,4.09c0,3,0,5.34,0,6.05s.39,1.28,1.55,1A22.07,22.07,0,0,0,52.5,28.7,22.31,22.31,0,0,0,30,6.59Z"/><path d="M35.5,48.58c0-.72,0-3.1,0-6.06A5.25,5.25,0,0,0,34,38.43c5-.54,10.27-2.41,10.27-10.9A8.47,8.47,0,0,0,42,21.59a7.9,7.9,0,0,0-.22-5.85s-1.89-.59-6.16,2.27a21.47,21.47,0,0,0-11.25,0c-4.31-2.86-6.19-2.27-6.19-2.27a7.75,7.75,0,0,0-.2,5.85,8.47,8.47,0,0,0-2.31,5.94c0,8.47,5.25,10.37,10.25,10.92a4.64,4.64,0,0,0-1.43,3c-1.29.56-4.55,1.54-6.55-1.84a4.71,4.71,0,0,0-3.45-2.28s-2.19,0-.16,1.34a6,6,0,0,1,2.51,3.24s1.32,4.3,7.58,3c0,1.85,0,3.24,0,3.76a1,1,0,0,1-.95,1.09,24.5,24.5,0,0,0,6.58.73,26,26,0,0,0,6.22-.78A1,1,0,0,1,35.5,48.58Z"/></svg>